<svg xmlns="http://www.w3.org/2000/svg" xmlns:xlink="http://www.w3.org/1999/xlink" width="640" height="640" viewBox="0 0 640 640" role="img" artist="Katerina Limpitsouni" source="https://undraw.co/"><defs><clipPath id="a-63"><circle cx="320" cy="320" r="320" transform="translate(532 131)" fill="none" stroke="#707070" stroke-width="1"/></clipPath></defs><g transform="translate(-640 -220)"><circle cx="320" cy="320" r="320" transform="translate(640 220)" fill="#f2f2f2"/><g transform="translate(108 89)" clip-path="url(#a-63)"><g transform="translate(-786.643 -263.817)"><path d="M321.754,88.167l2.579,41.86-78.164,3.966,24.206-55.152Z" transform="translate(1347.951 613.625)" fill="#ed9da0"/><path d="M334.533,103.531c-20.951,11.01-54.461,8-92.437,0l-5.938,309.974s123.757,40.089,164.6-11.83L374.29,136.459l-39.769-32.925h0Z" transform="translate(1339.744 633.859)" fill="#1E4DB7"/><path d="M292.933,94.674l-56.348,33.351a54.255,54.255,0,0,0-24.438,61.938L255.7,338.706S184.781,460.54,207.824,471.287c51.783,24.153,129.052,18.273,129.052,18.273l-17.27-291.7L292.931,94.669h0Z" transform="translate(1312.751 626.596)" fill="#3f3d58"/><path d="M288.877,102.924l63.714,24.752,15.049,183.8,42.143,148.069c-71.378,26.055-64.712,13.913-64.712,13.913L333.248,217.964,288.879,102.929h0Z" transform="translate(1382.953 633.363)" fill="#3f3d58"/><path d="M369.77,447.653l-.218-1.005L304.424,145.416a25.9,25.9,0,1,1,50.482-11.6L426.439,427.87,369.767,447.65Z" transform="translate(1395.136 642.123)" fill="#3f3d58"/><circle cx="63.414" cy="63.414" r="63.414" transform="translate(1572.377 586.084)" fill="#ed9da0"/><path d="M352.177,18.334c13.969,4.908,21.961,7.719,29.283,14.771,12.366,11.914,14.408,27.836,16.3,42.631,1.484,11.574,3.4,26.538-3.383,43.634-2.313,5.834-13.534,31.828-35.006,35.112-4.217.645-14.118.814-11.264-1.293,26.412-19.5,37.684-31.27,36.761-61.322-.575-18.674-29.107-38.834-46.048-42.457a28.853,28.853,0,0,0-23.442,5.462c-14.239,11.69-13.633,60.029-28.648,70.133-6.175,4.157-2.061-25.1-6.412-20.354-8.584,9.36-3.079,23.684-1.535,29.153,7.318,25.9,14.984,6.745,22.123,28.858,7.717,23.872-59.961,39.946-62.264,45.277-4.007,9.273,53.223,53.269,37.515,60.9-19.938,9.689-35.656-2.929-44.924,7.888-5.181,6.042-2.378,12.451-11.738,31.26-3.055,6.141-4.592,9.21-5.935,9.1-6.4-.515-16.762-51.744,0-99.452,7.033-20.022,13.923-39.634,32.384-54.978,9.766-8.11,17.954-11.027,20.286-20.5,3.33-13.534-10.5-19.3-13.27-40.651-1.895-14.6-3.226-35.48,1.933-48.863,4.867-12.639,9.094-23.609,20.153-33.556C277.706,16.7,299.147.46,321.883,0c10.467-.21,18.159,14.06,30.293,18.326h0Z" transform="translate(1313.784 549.004)" fill="#090814"/><path d="M334.292,212.03c19.575-2.061,36.449,6.752,37.669,19.684s-13.667,25.078-33.259,27.137a47.53,47.53,0,0,1-23.07-2.97l-83.082,7.644L230.057,223l82.168-3.234a48.2,48.2,0,0,1,22.067-7.733Z" transform="translate(1334.749 722.537)" fill="#ed9da0"/><path d="M260.939,114.224h0a38.592,38.592,0,0,0-43.16,30.264c-14.582,69.338-40.753,217.04.35,219.505,53.743,3.224,105.335-9.667,105.335-9.667l-12.9-74.164-41.92-4.3L293.3,160.529a38.6,38.6,0,0,0-32.357-46.3Z" transform="translate(1306.877 642.308)" fill="#3f3d58"/></g></g></g></svg>