<svg xmlns="http://www.w3.org/2000/svg" xmlns:xlink="http://www.w3.org/1999/xlink" width="640" height="640" viewBox="0 0 640 640" role="img" artist="Katerina Limpitsouni" source="https://undraw.co/"><defs><clipPath id="a-67"><circle cx="320" cy="320" r="320" transform="translate(-17355 -6339)" fill="none" stroke="#707070" stroke-width="1"/></clipPath></defs><g transform="translate(-694 -110)"><circle cx="320" cy="320" r="320" transform="translate(694 110)" fill="#f2f2f2"/><g transform="translate(18049 6449)" clip-path="url(#a-67)"><path d="M697.018,68.443s-30.266-27.136-70.97,24-104.364,76.188-118.98,96.018c0,0,60.534-25.049,81.408-35.485s19.832-8.349,19.832-8.349-28.18,19.832-33.4,39.663-1.044,36.529-10.436,56.359,179.513,13.567,179.513,13.567,18.787-32.35,13.567-65.752S755.464,72.617,697.018,68.443Z" transform="translate(-17678.941 -6248.833)" fill="#090814"/><path d="M625.971,139.83s6.582,46.07-21.625,56.412-17.865,24.445-17.865,24.445l42.31,20.684,45.131-14.1L688.965,204.7S664.52,199.063,671.1,182.14s8.462-22.565,8.462-22.565Z" transform="translate(-17665.141 -6234.853)" fill="#ffb9b9"/><path d="M726.124,251.578s-6.582,86.5-4.7,90.26,0,134.45,0,134.45,13.163,70.515-3.761,74.277S704.5,471.587,704.5,471.587L687.575,362.523l1.88-108.124Z" transform="translate(-17646.828 -6214.972)" fill="#ffb9b9"/><ellipse cx="41.786" cy="41.786" rx="41.786" ry="41.786" transform="translate(-17043.348 -6146.212)" fill="#ffb9b9"/><path d="M584.607,194.763l12.42-4.338s-4.9,8.1,21.428,12.8,53.589,6.366,65.816-9.039c0,0,4.7-2.242,11.279,4.338s10.342,4.7,10.342,4.7l-4.7,24.445-9.4,45.131-12.223,33.848-34.787-7.521L607.17,271.856l-14.1-36.669V201.345Z" transform="translate(-17665.145 -6225.853)" fill="#1E4DB7"/><path d="M706.412,207.4l9.4-6.582s31.967,5.641,33.848,20.684l-24.446,47.013a53.521,53.521,0,0,1-.941,40.429c-9.4,21.625-8.462,26.326-8.462,26.326l-6.582,28.207-119.406,9.4s-4.7-11.279-6.582-13.163-1.88-8.462,0-8.462,0-2.821-1.88-5.641-2.821-3.761,0-7.521-4.7-37.608-4.7-37.608V263.809L544.7,221.5s11.279-16.924,16.924-18.8,32.474-9.3,32.474-9.3l6.073,8.94,8.462,68.047,12.222,41.369,51.464-8.744,19.992-33.565,13.163-39.488Z" transform="translate(-17672.246 -6225.323)" fill="#1E4DB7"/><path d="M715.874,212.466l7.521,5.641s6.582,52.652,4.7,56.412-34.787,7.521-35.728,5.641S715.874,212.466,715.874,212.466Z" transform="translate(-17645.98 -6221.93)" fill="#1E4DB7"/><path d="M584.452,190.684l9.4,62.053s-8.462,92.14-6.582,110.944l1.88,5.641s-3.761-1.88-4.7,1.88,0,15.989,0,15.989-5.641,5.641-7.521,36.669-24.445,105.3-15.989,108.124,59.233,16.924,86.5,14.1,125.053-35.733,124.116-44.195-47.95-127.868-47.95-127.868-8.462-14.1-8.462-15.989,11.279-9.4,8.462-16.924-17.866-86.494-17.866-86.494l10.342-56.412-14.1-3.761-10.342,54.537s-40.429,19.745-82.739,1.88l-9.4-63.935Z" transform="translate(-17669.691 -6226.475)" fill="#090814"/><path d="M619.02,109.233s69.576,47.95,88.375,26.325-32.907-40.429-32.907-40.429l-43.249-4.7Z" transform="translate(-17659.023 -6243.642)" fill="#090814"/><path d="M539.134,261.157s6.582,86.5,4.7,90.26,0,134.45,0,134.45-13.163,70.515,3.761,74.277,13.163-78.977,13.163-78.977L577.682,372.1,575.8,263.977Z" transform="translate(-17673.266 -6213.268)" fill="#ffb9b9"/><path d="M553.875,214.861l-7.521,2.821s-14.1,59.233-10.342,59.233,48.891,5.641,48.891,3.761-8.462-47.95-8.462-47.95Z" transform="translate(-17673.906 -6221.505)" fill="#1E4DB7"/></g></g></svg>