<svg xmlns="http://www.w3.org/2000/svg" xmlns:xlink="http://www.w3.org/1999/xlink" width="640" height="640" viewBox="0 0 640 640" role="img" artist="Katerina Limpitsouni" source="https://undraw.co/"><defs><clipPath id="a-59"><circle cx="320" cy="320" r="320" transform="translate(501 195)" fill="none" stroke="#707070" stroke-width="1"/></clipPath></defs><g transform="translate(-21484 -20497)"><circle cx="320" cy="320" r="320" transform="translate(21484 20497)" fill="#f2f2f2"/><g transform="translate(20983 20302)" clip-path="url(#a-59)"><g transform="translate(426.41 -258.111)"><path d="M395,524.524a6.435,6.435,0,0,1-4.076-1.454,6.665,6.665,0,0,1-2.442-4.747,207.7,207.7,0,0,1,16.5-95.076c8.734-20.222,18.782-33.252,31.621-41.007,17.128-10.345,40.629-11.171,64.478-2.267,13.629,5.089,23.459,11.74,30.05,20.333,8.794,11.466,11.553,26.177,13.223,40.365a361.8,361.8,0,0,1,1.769,64.689,6.3,6.3,0,0,1-3.5,5.306,6.9,6.9,0,0,1-6.85-.451,14.172,14.172,0,0,0-1.25-.732,15.2,15.2,0,0,0-13.967.177,31.236,31.236,0,0,0-4.448,3.193l-8.574,6.941a6.62,6.62,0,0,1-7.543.478,46.521,46.521,0,0,0-20.309-6,129.64,129.64,0,0,0-28.3,2.054l-55.42,8.124A6.7,6.7,0,0,1,395,524.524Z" transform="translate(-62.412 244.496)" fill="#2f2e41"/><path d="M.022,18.3,19.69,93.288,94.679,78.538S42.356,24.584,49.721,0L0,18.3H.022Z" transform="translate(374.009 727.802) rotate(11)" fill="#ed9da0"/><path d="M507.867,693H421.459V439.014h86.408a62.423,62.423,0,0,1,62.353,62.353V630.643A62.423,62.423,0,0,1,507.867,693Z" transform="translate(-5.075 356.432)" fill="#2f2e41"/><path d="M455.71,548.908a10.9,10.9,0,0,1-10.885-10.885V443.688h21.77v94.336a10.9,10.9,0,0,1-10.885,10.885Z" transform="translate(35.055 364.458)" fill="#3f3d56"/><path d="M507.1,566.409H443.88a13.758,13.758,0,0,1-13.742-13.743V514.842A13.758,13.758,0,0,1,443.88,501.1H507.1a13.758,13.758,0,0,1,13.742,13.743v37.824A13.758,13.758,0,0,1,507.1,566.409Z" transform="translate(9.83 463.063)" fill="#3f3d56"/><path d="M254.356,376.062l-8.481,113.624L189.626,659.372l-22.591-13.131,30.648-172.572,10.408-99.555Z" transform="translate(57 539.824)" fill="#ed9da0"/><path d="M595.814,489.3,534.3,460.5,516.545,429.56l-59.706,3.385-18.067,29.492L385.628,473.2l7.81,192.079c-3.479,6.023-20.428,66.212-20.428,66.212s151.176,77,193.883-21.235c0,0,8.42-28.734-5.8-88.934S595.814,489.3,595.814,489.3Z" transform="translate(-88.287 340.193)" fill="#1E4DB7"/><path d="M420.193,457.853,402.727,445.62s-24.157,9.917-24.972,29.981-14.7,80.108-14.7,80.108L418.2,585.356Z" transform="translate(-105.386 367.777)" fill="#1E4DB7"/><path d="M355.826,379.547l-8.479,113.621-94.129,141.28-22.588-13.131,68.524-144.163L309.563,377.6Z" transform="translate(166.226 545.81)" fill="#ed9da0"/><path d="M458.658,457.967l28.773-6.423s17.338,5.537,19.705,31.579,4.353,71.365,4.353,71.365l-60.383,44.4-14.992-63.686Z" transform="translate(20.095 377.952)" fill="#1E4DB7"/><circle cx="55.16" cy="55.16" r="55.16" transform="translate(337.846 649.294)" fill="#ed9da0"/><path d="M413.6,449.76h0q-10.54-.005-21.107-.028a6.3,6.3,0,0,1-4.5-1.918,6.1,6.1,0,0,1-1.725-4.471,72.52,72.52,0,0,1,33.742-58.106h0a70.451,70.451,0,0,1,107.028,56.321,6.209,6.209,0,0,1-5.943,6.553c-24.411,1.032-51.491,1.534-87.8,1.628h-.018a6.193,6.193,0,0,1-5.757-3.866l-.584-1.43a3.844,3.844,0,0,0-7.3.555A6.194,6.194,0,0,1,413.6,449.76Z" transform="translate(-65.522 246.376)" fill="#2f2e41"/><path d="M459.776,605.157c-14.825-13.95-21.2-34.192-21.3-54.181-.116-22.83,8.147-44.514,18.834-64.364,6.463-12.005,13.828-23.493,21.2-34.955,2.479-3.856-3.666-7.421-6.133-3.585-24.932,38.779-52.388,84.711-36.31,132.37a72.271,72.271,0,0,0,18.689,29.737c3.327,3.131,8.359-1.882,5.022-5.022Z" transform="translate(11.772 369.161)" fill="#3f3d56"/></g></g></g></svg>