<svg width="80" height="23" viewBox="0 0 80 23" fill="none" xmlns="http://www.w3.org/2000/svg">
<g clip-path="url(#clip0_752_495)">
<path fill-rule="evenodd" clip-rule="evenodd" d="M31.623 17.3487C33.1434 17.4576 34.9152 16.2764 35.5392 15.6021C37.7089 13.2545 37.7612 9.85969 35.5769 7.40105C34.7644 6.48587 32.8544 5.47435 31.6461 5.61676H27.2712V17.334L31.6335 17.3487H31.623ZM29.7382 14.8105V8.14032C30.423 8.09539 31.11 8.09539 31.7947 8.14032C32.3335 8.2028 32.8475 8.40175 33.2879 8.71833C35.801 10.4356 34.7539 14.5298 31.7529 14.8042C31.0822 14.8513 30.4091 14.8534 29.7382 14.8105Z" fill="#008CEB"/>
<path fill-rule="evenodd" clip-rule="evenodd" d="M70.0293 17.3696H72.5235V14.844H77.4722L77.4869 17.3571H79.9811V13.1937C79.9811 11.9372 80.0859 10.3707 79.7717 9.23351C79.4864 8.19245 78.8684 7.2733 78.0119 6.61626C77.1555 5.95922 76.1076 5.60037 75.0282 5.59444C73.9488 5.5885 72.897 5.93582 72.0334 6.58341C71.1698 7.23099 70.5417 8.14329 70.245 9.18115C69.9099 10.3037 70.023 11.9141 70.023 13.1602C70.023 14.5675 70.0083 15.9832 70.023 17.3906L70.0293 17.3696ZM72.5256 12.3037C72.511 11.2565 72.4 10.1361 72.8921 9.32984C73.1081 8.95863 73.4186 8.65127 73.792 8.43901C74.1654 8.22676 74.5883 8.11719 75.0178 8.12146C75.445 8.12461 75.8642 8.23858 76.2342 8.45222C76.6042 8.66586 76.9124 8.97186 77.1288 9.34031C77.6146 10.178 77.4995 11.2251 77.4869 12.3058L72.5256 12.3037Z" fill="#008CEB"/>
<path fill-rule="evenodd" clip-rule="evenodd" d="M41.5058 17.3675H43.9916C43.9916 16.8398 43.9246 15.2251 44.0147 14.8419H48.9445L48.9613 17.3655H51.4513C51.4387 15.9665 51.4513 14.5696 51.4513 13.177C51.4513 11.9833 51.5623 10.2744 51.2419 9.21467C50.9548 8.17497 50.3358 7.25755 49.4792 6.60204C48.6227 5.94653 47.5754 5.58883 46.4968 5.58338C45.4182 5.57792 44.3673 5.92502 43.5042 6.57183C42.641 7.21865 42.0128 8.12976 41.7152 9.1665C41.3822 10.2555 41.4953 11.9204 41.4953 13.133C41.4953 14.5319 41.4639 15.9665 41.4953 17.3613L41.5058 17.3675ZM43.9937 12.3037C43.977 11.2566 43.8702 10.1215 44.3623 9.33195C44.5783 8.9617 44.8875 8.65453 45.2592 8.44104C45.6309 8.22755 46.052 8.11521 46.4806 8.11521C46.9093 8.11521 47.3304 8.22755 47.7021 8.44104C48.0738 8.65453 48.383 8.9617 48.599 9.33195C49.0869 10.1696 48.9696 11.2335 48.9613 12.2995L43.9937 12.3037Z" fill="#008CEB"/>
<path fill-rule="evenodd" clip-rule="evenodd" d="M55.8262 10.1927L55.7906 11.9372C55.7906 13.4032 55.7194 16.1403 55.7906 17.3319H58.2283C58.2848 16.4943 58.1403 10.5445 58.2932 10.3539C58.2932 9.19791 59.5015 8.12147 60.7204 8.11729C61.354 8.11347 61.964 8.3569 62.4209 8.79582C62.7309 9.07854 63.2063 9.72357 63.1979 10.3749C63.311 10.4398 63.2209 16.6576 63.2565 17.3466H65.6963L65.6775 10.2367C65.7382 9.67959 65.4031 8.81886 65.1874 8.38325C64.7874 7.55326 64.163 6.85186 63.3848 6.35847C62.6067 5.86509 61.706 5.59943 60.7847 5.59158C59.8634 5.58373 58.9583 5.83401 58.1718 6.31408C57.3854 6.79414 56.7492 7.48481 56.3351 8.30786C56.1256 8.73718 55.7738 9.62095 55.8262 10.1927Z" fill="#008CEB"/>
<path d="M11.4366 22.8733C17.7529 22.8733 22.8733 17.7529 22.8733 11.4366C22.8733 5.12036 17.7529 0 11.4366 0C5.12036 0 0 5.12036 0 11.4366C0 17.7529 5.12036 22.8733 11.4366 22.8733Z" fill="#008CEB"/>
<path d="M18.1005 11.4848V14.7037C18.1005 14.9131 18.0105 14.9571 17.8346 14.8545C17.5993 14.7132 17.3543 14.5887 17.1016 14.4817C16.3383 14.1776 15.5116 14.0675 14.6953 14.1613C13.8044 14.2768 12.9301 14.4961 12.0901 14.8147C11.2524 15.0974 10.4314 15.4031 9.57699 15.6398C8.86928 15.85 8.13277 15.9468 7.39479 15.9267C6.57693 15.895 5.78207 15.6471 5.09113 15.2084C5.00431 15.1561 4.93309 15.0815 4.88484 14.9924C4.8366 14.9033 4.8131 14.8029 4.81678 14.7016C4.81678 12.5934 4.81678 10.4852 4.81678 8.37697C4.81678 8.27435 4.81678 8.15289 4.90893 8.10053C5.00108 8.04817 5.09532 8.13404 5.1749 8.18639C5.9252 8.69372 6.81383 8.95702 7.7194 8.94032C8.3669 8.91376 9.00727 8.79457 9.62097 8.58639C10.4922 8.31624 11.3341 7.95812 12.1906 7.65446C12.8574 7.39822 13.541 7.18829 14.2367 7.02618C14.8337 6.88637 15.4532 6.87169 16.0562 6.98306C16.6592 7.09443 17.2326 7.32945 17.7403 7.6733C17.8567 7.74462 17.952 7.84565 18.0165 7.96601C18.0809 8.08637 18.1121 8.22171 18.1068 8.35812C18.1068 9.40524 18.1068 10.4524 18.1068 11.4995L18.1005 11.4848Z" fill="#FEFEFE"/>
</g>
<defs>
<clipPath id="clip0_752_495">
<rect width="80" height="22.8733" fill="white"/>
</clipPath>
</defs>
</svg>
